<svg width="24" height="24" viewBox="0 0 24 24" fill="none" xmlns="http://www.w3.org/2000/svg">
<path fill-rule="evenodd" clip-rule="evenodd" d="M16 3V1H18V3H19C19.5304 3 20.0391 3.21071 20.4142 3.58579C20.7893 3.96086 21 4.46957 21 5V19C21 19.5304 20.7893 20.0391 20.4142 20.4142C20.0391 20.7893 19.5304 21 19 21H5C4.46957 21 3.96086 20.7893 3.58579 20.4142C3.21071 20.0391 3 19.5304 3 19V9H21V8H3V5C3 3.89 3.89 3 5 3H6V1H8V3H16ZM17 12.5C17 12.2239 16.7761 12 16.5 12H12.5C12.2239 12 12 12.2239 12 12.5V16.5C12 16.7761 12.2239 17 12.5 17H16.5C16.7761 17 17 16.7761 17 16.5V12.5Z" fill="#0D1C2D" fill-opacity="0.5"/>
</svg>
