<svg width="80" height="80" viewBox="0 0 80 80" fill="none" xmlns="http://www.w3.org/2000/svg">
<path d="M71.6819 65.7301L71.2459 64.4341C66.9539 55.0961 46.5219 38.9941 46.5219 38.9941H34.8039C34.8039 38.9941 11.5139 52.2861 9.40786 66.1381L9.36786 66.3961C8.78586 70.8681 12.2959 74.8381 16.9879 74.8381H64.0839C66.2399 74.8381 68.1499 74.0081 69.5399 72.6901H69.5659L69.5719 72.6641C71.3779 70.9341 72.2919 68.3721 71.6839 65.7321L71.6819 65.7301Z" fill="#374BE4"/>
<path d="M40.1161 44.0096C49.2498 44.0096 56.6541 36.6053 56.6541 27.4716C56.6541 18.3379 49.2498 10.9336 40.1161 10.9336C30.9824 10.9336 23.5781 18.3379 23.5781 27.4716C23.5781 36.6053 30.9824 44.0096 40.1161 44.0096Z" fill="#FFC74D"/>
<path d="M25.0262 34.1466C28.6824 34.1466 31.6462 31.3663 31.6462 27.9366C31.6462 24.5069 28.6824 21.7266 25.0262 21.7266C21.3701 21.7266 18.4062 24.5069 18.4062 27.9366C18.4062 31.3663 21.3701 34.1466 25.0262 34.1466Z" fill="#FFC74D"/>
<path d="M55.2137 34.1466C58.8699 34.1466 61.8337 31.3663 61.8337 27.9366C61.8337 24.5069 58.8699 21.7266 55.2137 21.7266C51.5576 21.7266 48.5938 24.5069 48.5938 27.9366C48.5938 31.3663 51.5576 34.1466 55.2137 34.1466Z" fill="#FFC74D"/>
<path d="M58.8172 22.7302C58.9852 11.3742 49.2152 2.10423 37.6452 3.34623C28.7472 4.30223 21.6212 11.5342 20.7832 20.4442C20.6972 21.3502 20.6752 22.2462 20.7132 23.1262C20.7132 23.1262 22.3292 22.7402 23.7672 25.8622L34.6772 13.6542C34.6772 13.6542 47.9212 24.2902 56.6632 23.7102C56.8552 23.6982 57.0772 23.6302 57.2972 23.5362C57.8792 23.2082 58.3692 22.6002 58.8172 22.7302Z" fill="#FF8F00"/>
<path d="M35.4787 28.7845C36.4508 28.7845 37.2388 27.839 37.2388 26.6725C37.2388 25.5061 36.4508 24.5605 35.4787 24.5605C34.5067 24.5605 33.7188 25.5061 33.7188 26.6725C33.7188 27.839 34.5067 28.7845 35.4787 28.7845Z" fill="black"/>
<path d="M44.7678 28.7845C45.7398 28.7845 46.5278 27.839 46.5278 26.6725C46.5278 25.5061 45.7398 24.5605 44.7678 24.5605C43.7958 24.5605 43.0078 25.5061 43.0078 26.6725C43.0078 27.839 43.7958 28.7845 44.7678 28.7845Z" fill="black"/>
<path d="M38.9872 37.4173C38.7152 37.4173 38.5212 37.1553 38.5932 36.8933C38.8232 36.0593 39.5872 35.4473 40.4932 35.4473C41.3992 35.4473 42.1632 36.0593 42.3932 36.8933C42.4652 37.1553 42.2712 37.4173 41.9992 37.4173H38.9872Z" fill="#5C2F17"/>
<path d="M36.3267 39.1465L36.3047 45.9965C36.3047 46.2305 36.4287 46.4385 36.6407 46.5405C37.6707 47.0365 40.9267 48.3065 44.3827 46.5485C44.5887 46.4425 44.7247 46.2185 44.7247 45.9865L44.7467 39.1445H36.3287L36.3267 39.1465Z" fill="#FFC74D"/>
<path d="M55.2109 40.0331L68.8449 26.0751C69.9569 24.9371 71.7249 24.7591 73.0409 25.6551C74.3909 26.5731 74.8609 28.3451 74.1449 29.8111L69.0869 41.5371C68.2289 43.5251 66.4169 44.9371 64.2789 45.2831L57.5889 46.3631L55.2129 40.0351L55.2109 40.0331Z" fill="#FFC74D"/>
<path d="M25.7125 40.0331L12.0785 26.0751C10.9665 24.9371 9.19845 24.7591 7.88245 25.6551C6.53245 26.5731 6.06245 28.3451 6.77845 29.8111L11.8365 41.5371C12.6945 43.5251 14.5065 44.9371 16.6445 45.2831L23.3345 46.3631L25.7105 40.0351L25.7125 40.0331Z" fill="#FFC74D"/>
<path d="M10.5876 71.4585C12.9356 74.9085 17.7516 75.8765 21.3436 73.6205L64.3736 47.6465C64.3736 47.6465 56.2056 35.7945 56.1736 35.8125L12.8396 61.1285C9.2476 63.3845 8.2396 68.0085 10.5876 71.4585Z" fill="#5A80FF"/>
<path d="M70.6063 71.4585C68.2583 74.9085 63.4423 75.8765 59.8503 73.6205L16.8203 47.6465C16.8203 47.6465 24.9883 35.7945 25.0203 35.8125L68.3543 61.1285C71.9463 63.3845 72.9543 68.0085 70.6063 71.4585Z" fill="#91B0FF"/>
</svg>
