<svg width="80" height="81" viewBox="0 0 80 81" fill="none" xmlns="http://www.w3.org/2000/svg">
<path d="M21.6922 20.6432L24.987 17.7044C26.4465 16.401 27.3718 14.603 27.5807 12.6578L27.8884 9.78716L34.7484 6.84841C36.5464 6.0791 37.3904 4.00417 36.6387 2.19959C35.9991 0.660975 34.3901 -0.220432 32.746 0.047727C27.6422 0.880777 16.8873 3.82393 10.2734 14.1305L21.6922 20.6432Z" fill="#FFC74D"/>
<path d="M58.4634 20.778L55.1685 17.8392C53.7091 16.5358 52.7837 14.7378 52.5749 12.7925L52.2671 9.92193L45.4071 6.98317C43.6091 6.21386 42.7651 4.13893 43.5168 2.33436C44.1564 0.795741 45.7654 -0.0856661 47.4095 0.182493C52.5133 1.01554 63.2682 3.95869 69.8821 14.2652L58.4634 20.778Z" fill="#FFC74D"/>
<path d="M40.0997 56.5803C49.6947 56.5803 57.4729 48.8021 57.4729 39.2071C57.4729 29.6122 49.6947 21.834 40.0997 21.834C30.5048 21.834 22.7266 29.6122 22.7266 39.2071C22.7266 48.8021 30.5048 56.5803 40.0997 56.5803Z" fill="#FFC74D"/>
<path d="M24.2436 46.2154C28.0845 46.2154 31.1981 43.2947 31.1981 39.6917C31.1981 36.0887 28.0845 33.168 24.2436 33.168C20.4027 33.168 17.2891 36.0887 17.2891 39.6917C17.2891 43.2947 20.4027 46.2154 24.2436 46.2154Z" fill="#FFC74D"/>
<path d="M55.9467 46.2154C59.7876 46.2154 62.9013 43.2947 62.9013 39.6917C62.9013 36.0887 59.7876 33.168 55.9467 33.168C52.1058 33.168 48.9922 36.0887 48.9922 39.6917C48.9922 43.2947 52.1058 46.2154 55.9467 46.2154Z" fill="#FFC74D"/>
<path d="M36.3644 62.0979C37.3557 62.5749 40.4923 63.7992 43.8179 62.1067C44.0179 62.0056 44.1454 61.788 44.1454 61.566L44.1498 60.2845L44.1673 54.9785H36.061L36.0435 60.3021L36.0391 61.5748C36.0391 61.8012 36.1578 62.0012 36.3622 62.1001L36.3644 62.0979Z" fill="#FFC74D"/>
<path d="M59.748 34.2204C59.9238 22.2917 49.6612 12.5523 37.5084 13.8579C28.1624 14.8624 20.6759 22.4587 19.7945 31.8179C19.7044 32.7697 19.6824 33.7104 19.722 34.6336C19.722 34.6336 21.4211 34.2291 22.9311 37.5086L34.3916 24.6853C34.3916 24.6853 48.3051 35.8579 57.4862 35.249C57.6884 35.2358 57.9214 35.1655 58.1522 35.0666C58.7632 34.7215 59.2776 34.0819 59.748 34.2204Z" fill="#FF8F00"/>
<path d="M35.2157 40.5801C36.2366 40.5801 37.0643 39.5872 37.0643 38.3623C37.0643 37.1375 36.2366 36.1445 35.2157 36.1445C34.1948 36.1445 33.3672 37.1375 33.3672 38.3623C33.3672 39.5872 34.1948 40.5801 35.2157 40.5801Z" fill="black"/>
<path d="M44.9735 40.5801C45.9945 40.5801 46.8221 39.5872 46.8221 38.3623C46.8221 37.1375 45.9945 36.1445 44.9735 36.1445C43.9526 36.1445 43.125 37.1375 43.125 38.3623C43.125 39.5872 43.9526 40.5801 44.9735 40.5801Z" fill="black"/>
<path d="M42.365 47.8418C42.7738 47.8418 43.0661 48.2352 42.9562 48.6287C42.6111 49.8838 41.4616 50.8047 40.0988 50.8047C38.736 50.8047 37.5865 49.8838 37.2414 48.6287C37.1337 48.233 37.4238 47.8418 37.8326 47.8418H42.365Z" fill="#5C2F17"/>
<path d="M71.2239 15.3158C71.1338 15.1708 71.0437 15.0257 70.9514 14.8806C70.3425 13.9135 68.9622 13.5948 67.9093 14.1729L59.2623 18.2832C58.3325 18.7953 57.8292 19.8196 58.0402 20.8351C58.1369 21.3054 58.3017 21.833 58.515 22.4111L58.8512 23.2617C59.4887 24.8091 60.3833 26.6422 61.313 28.6732C61.3372 28.7304 61.3614 28.7875 61.3856 28.8447C62.2912 31.2449 63.1506 34.1573 63.6012 37.2785C63.5089 48.8093 55.1366 58.3487 44.1399 60.2852L44.1355 61.5666C44.1355 61.7908 44.0058 62.0062 43.808 62.1073C40.4802 63.7998 37.3458 62.5777 36.3545 62.0985C36.1501 61.9996 36.0314 61.7996 36.0314 61.5732L36.0358 60.3006C25.0721 58.4212 16.6976 48.9873 16.4822 37.5356C17.4691 28.9524 21.8388 21.7341 21.8388 21.7341C22.4366 20.8395 22.1487 19.6811 21.1903 19.0942L12.1785 13.5376C11.1366 12.9002 9.70788 13.186 9.06606 14.1619C8.97154 14.3069 8.87703 14.452 8.78251 14.5971C-1.50423 30.524 -3.39453 49.1676 6.54273 65.2967C9.44851 70.0136 12.1894 75.168 14.5985 79.4409C15.0073 80.1663 15.77 80.5971 16.6009 80.5971H63.744C64.5727 80.5971 65.331 80.1685 65.7421 79.4475C68.0544 75.39 70.6898 70.5345 73.4747 66.0154C83.5285 49.6995 81.3282 31.6032 71.2239 15.3158Z" fill="#5268E9"/>
</svg>
