<svg width="24" height="24" viewBox="0 0 24 24" fill="none" xmlns="http://www.w3.org/2000/svg">
<path d="M15.978 14.4721H15.188L14.908 14.2021C15.533 13.4761 15.9897 12.6209 16.2456 11.6978C16.5014 10.7746 16.5501 9.8063 16.388 8.86214C15.918 6.08214 13.598 3.86214 10.798 3.52214C9.81362 3.39761 8.81379 3.49991 7.87503 3.82123C6.93626 4.14255 6.08345 4.67436 5.38183 5.37597C4.68022 6.07759 4.14841 6.9304 3.82709 7.86917C3.50577 8.80793 3.40347 9.80776 3.528 10.7921C3.868 13.5921 6.088 15.9121 8.868 16.3821C9.81216 16.5442 10.7805 16.4956 11.7036 16.2397C12.6268 15.9838 13.482 15.5271 14.208 14.9021L14.478 15.1821V15.9721L18.728 20.2221C19.138 20.6321 19.808 20.6321 20.218 20.2221C20.628 19.8121 20.628 19.1421 20.218 18.7321L15.978 14.4721ZM9.978 14.4721C7.488 14.4721 5.478 12.4621 5.478 9.97214C5.478 7.48214 7.488 5.47214 9.978 5.47214C12.468 5.47214 14.478 7.48214 14.478 9.97214C14.478 12.4621 12.468 14.4721 9.978 14.4721Z" fill="#0D1C2D" fill-opacity="0.5"/>
</svg>
