<svg width="67" height="29" viewBox="0 0 67 29" fill="none" xmlns="http://www.w3.org/2000/svg">
  <rect width="67" height="29" rx="8" fill="#6561FF" />
  <path d="M14 17.1531L16.1824 18.473C16.5821 18.7149 17.0712 18.3573 16.966 17.9051L16.3875 15.4229L18.3175 13.7506C18.6699 13.4455 18.4806 12.8671 18.0178 12.8303L15.4777 12.6146L14.4838 10.2692C14.305 9.84321 13.695 9.84321 13.5162 10.2692L12.5223 12.6094L9.98222 12.825C9.51944 12.8618 9.33012 13.4403 9.68246 13.7453L11.6125 15.4176L11.034 17.8998C10.9288 18.3521 11.4179 18.7097 11.8176 18.4678L14 17.1531Z" fill="white" />
  <path d="M29.1455 9.55273C29.1455 11.46 31.0117 13.3809 33.6025 13.832L32.9189 15.1035C30.8477 14.6729 29.1523 13.415 28.3457 11.7539C27.5322 13.4014 25.8369 14.666 23.7725 15.1035L23.1025 13.832C25.6523 13.3672 27.5254 11.4531 27.5322 9.55273V8.63672H29.1455V9.55273ZM22.7607 18.6445V17.3867H34.0537V18.6445H22.7607ZM44.8818 9.00586V10.4824C44.8818 12.2803 44.8818 13.9756 44.335 16.5938L42.8174 16.457C43.0703 15.377 43.207 14.4268 43.2891 13.5518L36.0088 13.9277L35.8037 12.6973L43.3574 12.4102C43.3848 11.7471 43.3916 11.1113 43.3916 10.4824V10.2363H36.1729V9.00586H44.8818ZM34.8604 18.6445V17.4004H46.126V18.6445H34.8604ZM57.5283 7.87109V14.7207H56.0791V11.8906H54.7939V14.625H53.3721V8.07617H54.7939V10.6875H56.0791V7.87109H57.5283ZM47.4658 9.74414V8.54102H52.1689V11.9316H48.9561V13.1279C50.3984 13.1074 51.4854 13.0527 52.7432 12.8066L52.8799 14.0234C51.3896 14.2969 50.1387 14.3447 48.3271 14.3516H47.4795V10.8105H50.7061V9.74414H47.4658ZM49.1885 20.0664V15.2539H50.6924V16.416H56.0244V15.2539H57.5283V20.0664H49.1885ZM50.6924 18.8359H56.0244V17.6055H50.6924V18.8359Z" fill="white" />
</svg>
