<svg width="80" height="80" viewBox="0 0 80 80" fill="none" xmlns="http://www.w3.org/2000/svg">
<path d="M40.0007 12.334C55.993 12.3347 69.0041 25.3412 69.0013 41.3346C68.9977 57.3267 55.9904 70.3345 40.0007 70.3353C24.013 70.3353 11.0036 57.3271 11 41.3346C11 25.344 24.01 12.334 40.0007 12.334ZM40.0007 20.3353C28.7858 20.3353 19.5909 29.1765 19.0273 40.2539L19.0013 41.3509C19.0136 52.9229 28.4327 62.334 40.0007 62.334C51.215 62.3333 60.4083 53.4922 60.974 42.4121L61 41.3346L60.974 40.2539C60.4102 29.1769 51.2178 20.336 40.0007 20.3353Z" fill="white"/>
</svg>
