<svg width="80" height="80" viewBox="0 0 80 80" fill="none" xmlns="http://www.w3.org/2000/svg">
<path d="M59.8565 21.1596C58.3324 19.6355 55.8599 19.6358 54.3357 21.1596L39.9997 35.4955L25.6638 21.1596C24.1395 19.6358 21.667 19.6355 20.143 21.1596C18.6189 22.6836 18.6192 25.1561 20.143 26.6804L34.8012 41.3386L20.143 55.9968C18.6191 57.521 18.6189 59.9935 20.143 61.5176C21.6671 63.0417 24.1395 63.0415 25.6638 61.5176L39.9997 47.1817L54.3357 61.5176C55.8599 63.0415 58.3324 63.0417 59.8565 61.5176C61.3805 59.9935 61.3803 57.521 59.8565 55.9968L45.1983 41.3386L59.8565 26.6804C61.3803 25.1561 61.3806 22.6836 59.8565 21.1596Z" fill="#FF5358"/>
</svg>
